<?xml version="1.0" ?><!-- Uploaded to: SVG Repo, www.svgrepo.com, Generator: SVG Repo Mixer Tools -->
<svg width="800px" height="800px" viewBox="0 0 24 24" fill="none" xmlns="http://www.w3.org/2000/svg"><path d="M3 3V6M21 3V6M21 6V10C21 11.1046 20.1046 12 19 12H9M21 6H9M3 6V10C3 11.1046 3.89543 12 5 12H9M3 6H9M9 3V6M9 6V12M15 3V6V12" stroke="#000000" stroke-linecap="round" stroke-linejoin="round" stroke-width="2"/><path d="M9 15L12 18M12 18L15 21M12 18L15 15M12 18L9 21" stroke="#000000" stroke-linecap="round" stroke-linejoin="round" stroke-width="2"/></svg>